<svg id='Edit_Copy_24' width='24' height='24' viewBox='0 0 24 24' xmlns='http://www.w3.org/2000/svg' xmlns:xlink='http://www.w3.org/1999/xlink'><rect width='24' height='24' stroke='none' fill='#000000' opacity='0'/>


<g transform="matrix(1.43 0 0 1.43 12 12)" >
<g style="" >
<g transform="matrix(1 0 0 1 -2.5 -1)" >
<path style="stroke: none; stroke-width: 1; stroke-dasharray: none; stroke-linecap: butt; stroke-dashoffset: 0; stroke-linejoin: miter; stroke-miterlimit: 4; fill: rgb(255,185,236); fill-rule: evenodd; opacity: 1;" transform=" translate(-4.5, -6)" d="M 1.5 1.5 C 0.947715 1.5 0.5 1.94772 0.5 2.5 L 0.5 9.5 C 0.5 10.0523 0.947715 10.5 1.5 10.5 L 6.5 10.5 L 6.5 6.5 C 6.5 5.94772 6.94772 5.5 7.5 5.5 L 8.5 5.5 L 8.5 2.5 C 8.5 1.94772 8.05228 1.5 7.5 1.5 L 1.5 1.5 Z" stroke-linecap="round" />
</g>
<g transform="matrix(1 0 0 1 0.52 -4.48)" >
<path style="stroke: rgb(248,59,172); stroke-width: 1.048951048951049; stroke-dasharray: none; stroke-linecap: round; stroke-dashoffset: 0; stroke-linejoin: round; stroke-miterlimit: 4; fill: none; fill-rule: nonzero; opacity: 1;" transform=" translate(-7.5, -2.5)" d="M 8.5 3.5 L 8.5 2.5 C 8.5 2.23478 8.39464 1.98043 8.20711 1.79289 C 8.01957 1.60536 7.76522 1.5 7.5 1.5 L 6.5 1.5" stroke-linecap="round" />
</g>
<g transform="matrix(1 0 0 1 -4.73 -0.98)" >
<path style="stroke: rgb(248,59,172); stroke-width: 1.048951048951049; stroke-dasharray: none; stroke-linecap: round; stroke-dashoffset: 0; stroke-linejoin: round; stroke-miterlimit: 4; fill: none; fill-rule: nonzero; opacity: 1;" transform=" translate(-2.25, -6)" d="M 4 10.5 L 1.5 10.5 C 1.23478 10.5 0.98043 10.3946 0.792893 10.2071 C 0.605357 10.0196 0.5 9.76522 0.5 9.5 L 0.5 2.5 C 0.5 2.23478 0.605357 1.98043 0.792893 1.79289 C 0.98043 1.60536 1.23478 1.5 1.5 1.5 L 2.5 1.5" stroke-linecap="round" />
</g>
<g transform="matrix(1 0 0 1 3 2.5)" >
<path style="stroke: none; stroke-width: 1; stroke-dasharray: none; stroke-linecap: butt; stroke-dashoffset: 0; stroke-linejoin: miter; stroke-miterlimit: 4; fill: rgb(255,255,255); fill-rule: nonzero; opacity: 1;" transform=" translate(-10, -9.5)" d="M 12.5 5.5 L 7.5 5.5 C 6.94772 5.5 6.5 5.94772 6.5 6.5 L 6.5 12.5 C 6.5 13.0523 6.94772 13.5 7.5 13.5 L 12.5 13.5 C 13.0523 13.5 13.5 13.0523 13.5 12.5 L 13.5 6.5 C 13.5 5.94772 13.0523 5.5 12.5 5.5 Z" stroke-linecap="round" />
</g>
<g transform="matrix(1 0 0 1 3.02 2.52)" >
<path style="stroke: rgb(248,59,172); stroke-width: 1.048951048951049; stroke-dasharray: none; stroke-linecap: round; stroke-dashoffset: 0; stroke-linejoin: round; stroke-miterlimit: 4; fill: none; fill-rule: nonzero; opacity: 1;" transform=" translate(-10, -9.5)" d="M 12.5 5.5 L 7.5 5.5 C 6.94772 5.5 6.5 5.94772 6.5 6.5 L 6.5 12.5 C 6.5 13.0523 6.94772 13.5 7.5 13.5 L 12.5 13.5 C 13.0523 13.5 13.5 13.0523 13.5 12.5 L 13.5 6.5 C 13.5 5.94772 13.0523 5.5 12.5 5.5 Z" stroke-linecap="round" />
</g>
<g transform="matrix(1 0 0 1 -2.5 -5.5)" >
<path style="stroke: none; stroke-width: 1; stroke-dasharray: none; stroke-linecap: butt; stroke-dashoffset: 0; stroke-linejoin: miter; stroke-miterlimit: 4; fill: rgb(255,255,255); fill-rule: nonzero; opacity: 1;" transform=" translate(-4.5, -1.5)" d="M 6.75 0.5 L 2.25 0.5 L 2.66 2.12 C 2.68498 2.22843 2.74611 2.32513 2.83335 2.39419 C 2.92059 2.46325 3.02873 2.50057 3.14 2.5 L 5.86 2.5 C 5.97127 2.50057 6.07941 2.46325 6.16665 2.39419 C 6.25389 2.32513 6.31502 2.22843 6.34 2.12 L 6.75 0.5 Z" stroke-linecap="round" />
</g>
<g transform="matrix(1 0 0 1 -2.48 -5.48)" >
<path style="stroke: rgb(248,59,172); stroke-width: 1.048951048951049; stroke-dasharray: none; stroke-linecap: round; stroke-dashoffset: 0; stroke-linejoin: round; stroke-miterlimit: 4; fill: none; fill-rule: nonzero; opacity: 1;" transform=" translate(-4.5, -1.5)" d="M 6.75 0.5 L 2.25 0.5 L 2.66 2.12 C 2.68498 2.22843 2.74611 2.32513 2.83335 2.39419 C 2.92059 2.46325 3.02873 2.50057 3.14 2.5 L 5.86 2.5 C 5.97127 2.50057 6.07941 2.46325 6.16665 2.39419 C 6.25389 2.32513 6.31502 2.22843 6.34 2.12 L 6.75 0.5 Z" stroke-linecap="round" />
</g>
<g transform="matrix(1 0 0 1 3.02 1.52)" >
<path style="stroke: rgb(248,59,172); stroke-width: 1.048951048951049; stroke-dasharray: none; stroke-linecap: round; stroke-dashoffset: 0; stroke-linejoin: round; stroke-miterlimit: 4; fill: none; fill-rule: nonzero; opacity: 1;" transform=" translate(-10, -8.5)" d="M 8.5 8.5 L 11.5 8.5" stroke-linecap="round" />
</g>
<g transform="matrix(1 0 0 1 3.02 3.52)" >
<path style="stroke: rgb(248,59,172); stroke-width: 1.048951048951049; stroke-dasharray: none; stroke-linecap: round; stroke-dashoffset: 0; stroke-linejoin: round; stroke-miterlimit: 4; fill: none; fill-rule: nonzero; opacity: 1;" transform=" translate(-10, -10.5)" d="M 8.5 10.5 L 11.5 10.5" stroke-linecap="round" />
</g>
</g>
</g>
</svg>